<svg xmlns="http://www.w3.org/2000/svg" id="mainsvg" width="345.95966796875" height="872.3000000000001" viewBox="-10 -10 314.5087890625 793"><defs><marker id="arrow" viewBox="0 0 10 10" refX="10" refY="5" markerWidth="5" markerHeight="5" orient="auto-start-reverse" fill="black"><path d="M 0 0 L 10 5 L 0 10 z"/></marker><filter id="shadowOLD" x="-50%" y="-50%" width="250%" height="250%"><feDropShadow flood-color="black" flood-opacity="0.3" dx="1" dy="1" stdDeviation="2"> </feDropShadow></filter><filter id="shadow-path" filterUnits="userSpaceOnUse" x="-10" y="-10" width="314.5087890625px" height="793px"><feDropShadow flood-color="black" flood-opacity="0.1" dx="1" dy="1" stdDeviation="1"> </feDropShadow></filter><filter id="shadow" filterUnits="userSpaceOnUse" x="-10" y="-10" width="414.5087890625px" height="893px"><feDropShadow flood-color="black" flood-opacity="0.1" dx="1" dy="1" stdDeviation="1"> </feDropShadow></filter></defs><rect x="-10" y="-10" width="314.5087890625" height="793" fill="#fff"/><g transform="translate(0, 0)"><rect width="294.5087890625" height="773" stroke="black" fill="#ffffff" stroke-width="2" transform="translate(0, 0)" rx="2"/><g transform="translate(4, 4)"><rect width="129.4140625" height="23.5" stroke="black" fill="none" stroke-width="0" transform="translate(0, 0)" rx="0"/><text fill="black" font-size="14" font-weight="normal" transform="translate(4, 4)" alignment-baseline="middle" font-family="Arial"><tspan x="0" dy="14" font-family="Arial" font-size="14" font-weight="normal">Campaign phase layout</tspan></text></g><g transform="translate(8, 39.5)"><rect width="278.5087890625" height="170" stroke="black" fill="#e6e6e6" stroke-width="2" transform="translate(0, 0)" rx="2"/><g transform="translate(4, 4)"><rect width="76.50390625" height="23.5" stroke="black" fill="none" stroke-width="0" transform="translate(0, 0)" rx="0"/><text fill="black" font-size="14" font-weight="normal" transform="translate(4, 4)" alignment-baseline="middle" font-family="Arial"><tspan x="0" dy="14" font-family="Arial" font-size="14" font-weight="normal">Opponents</tspan></text></g><g transform="translate(8, 39.5)"><rect width="119.478515625" height="122.5" stroke="black" fill="#cccccc" stroke-width="2" transform="translate(0, 0)" rx="2"/><g transform="translate(4, 4)"><rect width="103.478515625" height="23.5" stroke="black" fill="none" stroke-width="0" transform="translate(0, 0)" rx="0"/><text fill="black" font-size="14" font-weight="normal" transform="translate(4, 4)" alignment-baseline="middle" font-family="Arial"><tspan x="0" dy="14" font-family="Arial" font-size="14" font-weight="normal">Beth | Voters: n</tspan></text></g><g transform="translate(8, 39.5)"><rect width="103.478515625" height="33.5" stroke="black" fill="white" stroke-width="2" transform="translate(0, 0)" rx="3"/><text fill="black" font-size="16" font-weight="normal" transform="translate(16.1611328125, 8)" alignment-baseline="middle" font-family="Arial"><tspan x="0" dy="16" font-family="Arial" font-size="16" font-weight="normal">Hand size</tspan></text></g><g transform="translate(8, 81)"><rect width="103.478515625" height="33.5" stroke="black" fill="white" stroke-width="2" transform="translate(0, 0)" rx="3"/><text fill="black" font-size="16" font-weight="normal" transform="translate(16.6142578125, 8)" alignment-baseline="middle" font-family="Arial"><tspan x="0" dy="16" font-family="Arial" font-size="16" font-weight="normal">[Advisors]</tspan></text></g></g><g transform="translate(135.478515625, 39.5)"><rect width="135.0302734375" height="122.5" stroke="black" fill="#cccccc" stroke-width="2" transform="translate(0, 0)" rx="2"/><g transform="translate(4, 4)"><rect width="119.0302734375" height="23.5" stroke="black" fill="none" stroke-width="0" transform="translate(0, 0)" rx="0"/><text fill="black" font-size="14" font-weight="normal" transform="translate(4, 4)" alignment-baseline="middle" font-family="Arial"><tspan x="0" dy="14" font-family="Arial" font-size="14" font-weight="normal">Charlie | Voters: n</tspan></text></g><g transform="translate(8, 39.5)"><rect width="119.0302734375" height="33.5" stroke="black" fill="white" stroke-width="2" transform="translate(0, 0)" rx="3"/><text fill="black" font-size="16" font-weight="normal" transform="translate(23.93701171875, 8)" alignment-baseline="middle" font-family="Arial"><tspan x="0" dy="16" font-family="Arial" font-size="16" font-weight="normal">Hand size</tspan></text></g><g transform="translate(8, 81)"><rect width="119.0302734375" height="33.5" stroke="black" fill="white" stroke-width="2" transform="translate(0, 0)" rx="3"/><text fill="black" font-size="16" font-weight="normal" transform="translate(24.39013671875, 8)" alignment-baseline="middle" font-family="Arial"><tspan x="0" dy="16" font-family="Arial" font-size="16" font-weight="normal">[Advisors]</tspan></text></g></g></g><g transform="translate(8, 217.5)"><rect width="278.5087890625" height="207" stroke="black" fill="#e6e6e6" stroke-width="2" transform="translate(0, 0)" rx="2"/><g transform="translate(8, 8)"><rect width="262.5087890625" height="191" stroke="black" fill="white" stroke-width="2" transform="translate(0, 0)" rx="3"/><text fill="black" font-size="16" font-weight="normal" transform="translate(55.64501953125, 8)" alignment-baseline="middle" font-family="Arial"><tspan x="0" dy="16" font-family="Arial" font-size="16" font-weight="normal"/><tspan x="0" dy="16" font-family="Arial" font-size="16" font-weight="normal"/><tspan x="0" dy="16" font-family="Arial" font-size="16" font-weight="normal"/><tspan x="0" dy="16" font-family="Arial" font-size="16" font-weight="normal"/><tspan x="0" dy="16" font-family="Arial" font-size="16" font-weight="normal"/><tspan x="0" dy="16" font-family="Arial" font-size="16" font-weight="normal"/><tspan x="0" dy="16" font-family="Arial" font-size="16" font-weight="normal"/><tspan x="0" dy="16" font-family="Arial" font-size="16" font-weight="normal"/><tspan x="0" dy="16" font-family="Arial" font-size="16" font-weight="normal"/><tspan x="0" dy="16" font-family="Arial" font-size="16" font-weight="normal">Undecided voter pool</tspan></text></g></g><g transform="translate(8, 432.5)"><rect width="278.5087890625" height="243.5" stroke="black" fill="#e6e6e6" stroke-width="2" transform="translate(0, 0)" rx="2"/><g transform="translate(4, 4)"><rect width="79.6005859375" height="23.5" stroke="black" fill="none" stroke-width="0" transform="translate(0, 0)" rx="0"/><text fill="black" font-size="14" font-weight="normal" transform="translate(4, 4)" alignment-baseline="middle" font-family="Arial"><tspan x="0" dy="14" font-family="Arial" font-size="14" font-weight="normal">Player area</tspan></text></g><g transform="translate(8, 39.5)"><rect width="262.5087890625" height="49.5" stroke="black" fill="#cccccc" stroke-width="2" transform="translate(0, 0)" rx="2"/><g transform="translate(8, 8)"><rect width="246.5087890625" height="33.5" stroke="black" fill="white" stroke-width="2" transform="translate(0, 0)" rx="3"/><text fill="black" font-size="16" font-weight="normal" transform="translate(69.74267578125, 8)" alignment-baseline="middle" font-family="Arial"><tspan x="0" dy="16" font-family="Arial" font-size="16" font-weight="normal">[Your Advisors]</tspan></text></g></g><g transform="translate(8, 97)"><rect width="262.5087890625" height="81" stroke="black" fill="#cccccc" stroke-width="2" transform="translate(0, 0)" rx="2"/><g transform="translate(4, 4)"><rect width="71.3291015625" height="23.5" stroke="black" fill="none" stroke-width="0" transform="translate(0, 0)" rx="0"/><text fill="black" font-size="14" font-weight="normal" transform="translate(4, 4)" alignment-baseline="middle" font-family="Arial"><tspan x="0" dy="14" font-family="Arial" font-size="14" font-weight="normal">Your hand</tspan></text></g><g transform="translate(8, 39.5)"><rect width="42.9017578125" height="33.5" stroke="black" fill="white" stroke-width="2" transform="translate(0, 0)" rx="3"/><text fill="black" font-size="16" font-weight="normal" transform="translate(11.22041015625, 8)" alignment-baseline="middle" font-family="Arial"><tspan x="0" dy="16" font-family="Arial" font-size="16" font-weight="normal">C1</tspan></text></g><g transform="translate(58.9017578125, 39.5)"><rect width="42.9017578125" height="33.5" stroke="black" fill="white" stroke-width="2" transform="translate(0, 0)" rx="3"/><text fill="black" font-size="16" font-weight="normal" transform="translate(11.22041015625, 8)" alignment-baseline="middle" font-family="Arial"><tspan x="0" dy="16" font-family="Arial" font-size="16" font-weight="normal">C2</tspan></text></g><g transform="translate(109.803515625, 39.5)"><rect width="42.9017578125" height="33.5" stroke="black" fill="white" stroke-width="2" transform="translate(0, 0)" rx="3"/><text fill="black" font-size="16" font-weight="normal" transform="translate(11.22041015625, 8)" alignment-baseline="middle" font-family="Arial"><tspan x="0" dy="16" font-family="Arial" font-size="16" font-weight="normal">C3</tspan></text></g><g transform="translate(160.7052734375, 39.5)"><rect width="42.9017578125" height="33.5" stroke="black" fill="white" stroke-width="2" transform="translate(0, 0)" rx="3"/><text fill="black" font-size="16" font-weight="normal" transform="translate(11.22041015625, 8)" alignment-baseline="middle" font-family="Arial"><tspan x="0" dy="16" font-family="Arial" font-size="16" font-weight="normal">C4</tspan></text></g><g transform="translate(211.60703125, 39.5)"><rect width="42.9017578125" height="33.5" stroke="black" fill="white" stroke-width="2" transform="translate(0, 0)" rx="3"/><text fill="black" font-size="16" font-weight="normal" transform="translate(11.22041015625, 8)" alignment-baseline="middle" font-family="Arial"><tspan x="0" dy="16" font-family="Arial" font-size="16" font-weight="normal">C5</tspan></text></g></g><g transform="translate(8, 186)"><rect width="262.5087890625" height="49.5" stroke="black" fill="#cccccc" stroke-width="2" transform="translate(0, 0)" rx="2"/><g transform="translate(8, 8)"><rect width="110.36376953125" height="33.5" stroke="black" fill="white" stroke-width="2" transform="translate(0, 0)" rx="3"/><text fill="black" font-size="16" font-weight="normal" transform="translate(18.564697265625, 8)" alignment-baseline="middle" font-family="Arial"><tspan x="0" dy="16" font-family="Arial" font-size="16" font-weight="normal">Your Deck</tspan></text></g><g transform="translate(126.36376953125, 8)"><rect width="128.14501953125" height="33.5" stroke="black" fill="white" stroke-width="2" transform="translate(0, 0)" rx="3"/><text fill="black" font-size="16" font-weight="normal" transform="translate(18.564697265625, 8)" alignment-baseline="middle" font-family="Arial"><tspan x="0" dy="16" font-family="Arial" font-size="16" font-weight="normal">Your Discard</tspan></text></g></g></g><g transform="translate(8, 684)"><rect width="278.5087890625" height="81" stroke="black" fill="#e6e6e6" stroke-width="2" transform="translate(0, 0)" rx="2"/><g transform="translate(4, 4)"><rect width="64.814453125" height="23.5" stroke="black" fill="none" stroke-width="0" transform="translate(0, 0)" rx="0"/><text fill="black" font-size="14" font-weight="normal" transform="translate(4, 4)" alignment-baseline="middle" font-family="Arial"><tspan x="0" dy="14" font-family="Arial" font-size="14" font-weight="normal">Scorebar</tspan></text></g><g transform="translate(8, 39.5)"><rect width="137.04345703125" height="33.5" stroke="black" fill="white" stroke-width="2" transform="translate(0, 0)" rx="3"/><text fill="black" font-size="16" font-weight="normal" transform="translate(17.662353515625, 8)" alignment-baseline="middle" font-family="Arial"><tspan x="0" dy="16" font-family="Arial" font-size="16" font-weight="normal">Your Influence</tspan></text></g><g transform="translate(153.04345703125, 39.5)"><rect width="117.46533203125" height="33.5" stroke="black" fill="white" stroke-width="2" transform="translate(0, 0)" rx="3"/><text fill="black" font-size="16" font-weight="normal" transform="translate(17.662353515625, 8)" alignment-baseline="middle" font-family="Arial"><tspan x="0" dy="16" font-family="Arial" font-size="16" font-weight="normal">Your Voters</tspan></text></g></g></g></svg>
