<svg xmlns="http://www.w3.org/2000/svg" id="mainsvg" width="357.45703125000006" height="378.40000000000003" viewBox="-10 -10 324.9609375 344"><defs><marker id="arrow" viewBox="0 0 10 10" refX="10" refY="5" markerWidth="5" markerHeight="5" orient="auto-start-reverse" fill="black"><path d="M 0 0 L 10 5 L 0 10 z"/></marker><filter id="shadowOLD" x="-50%" y="-50%" width="250%" height="250%"><feDropShadow flood-color="black" flood-opacity="0.3" dx="1" dy="1" stdDeviation="2"> </feDropShadow></filter><filter id="shadow-path" filterUnits="userSpaceOnUse" x="-10" y="-10" width="324.9609375px" height="344px"><feDropShadow flood-color="black" flood-opacity="0.1" dx="1" dy="1" stdDeviation="1"> </feDropShadow></filter><filter id="shadow" filterUnits="userSpaceOnUse" x="-10" y="-10" width="424.9609375px" height="444px"><feDropShadow flood-color="black" flood-opacity="0.1" dx="1" dy="1" stdDeviation="1"> </feDropShadow></filter></defs><rect x="-10" y="-10" width="324.9609375" height="344" fill="#fff"/><g transform="translate(0, 0)"><rect width="304.9609375" height="324" stroke="black" fill="#ffffff" stroke-width="2" transform="translate(0, 0)" rx="2"/><g transform="translate(4, 4)"><rect width="80.3798828125" height="23.5" stroke="black" fill="none" stroke-width="0" transform="translate(0, 0)" rx="0"/><text fill="black" font-size="14" font-weight="normal" transform="translate(4, 4)" alignment-baseline="middle" font-family="Arial"><tspan x="0" dy="14" font-family="Arial" font-size="14" font-weight="normal">Draft phase step 2</tspan></text></g><g transform="translate(8, 39.5)"><rect width="288.9609375" height="33.5" stroke="black" fill="white" stroke-width="2" transform="translate(0, 0)" rx="3"/><text fill="black" font-size="16" font-weight="normal" transform="translate(79.99609375, 8)" alignment-baseline="middle" font-family="Arial"><tspan x="0" dy="16" font-family="Arial" font-size="16" font-weight="normal">Hidden cards x 41</tspan></text></g><g transform="translate(8, 81)"><rect width="288.9609375" height="81" stroke="black" fill="#e6e6e6" stroke-width="2" transform="translate(0, 0)" rx="2"/><g transform="translate(4, 4)"><rect width="87.1201171875" height="23.5" stroke="black" fill="none" stroke-width="0" transform="translate(0, 0)" rx="0"/><text fill="black" font-size="14" font-weight="normal" transform="translate(4, 4)" alignment-baseline="middle" font-family="Arial"><tspan x="0" dy="14" font-family="Arial" font-size="14" font-weight="normal">Visible cards</tspan></text></g><g transform="translate(8, 39.5)"><rect width="85.65364583333333" height="33.5" stroke="black" fill="white" stroke-width="2" transform="translate(0, 0)" rx="3"/><text fill="black" font-size="16" font-weight="normal" transform="translate(18.811197916666664, 8)" alignment-baseline="middle" font-family="Arial"><tspan x="0" dy="16" font-family="Arial" font-size="16" font-weight="normal">Card 1</tspan></text></g><g transform="translate(101.65364583333333, 39.5)"><rect width="85.65364583333333" height="33.5" stroke="black" fill="white" stroke-width="2" transform="translate(0, 0)" rx="3"/><text fill="black" font-size="16" font-weight="normal" transform="translate(18.811197916666664, 8)" alignment-baseline="middle" font-family="Arial"><tspan x="0" dy="16" font-family="Arial" font-size="16" font-weight="normal">Card 4</tspan></text></g><g transform="translate(195.30729166666666, 39.5)"><rect width="85.65364583333333" height="33.5" stroke="black" fill="white" stroke-width="2" transform="translate(0, 0)" rx="3"/><text fill="black" font-size="16" font-weight="normal" transform="translate(18.811197916666664, 8)" alignment-baseline="middle" font-family="Arial"><tspan x="0" dy="16" font-family="Arial" font-size="16" font-weight="normal">Card 3</tspan></text></g></g><g transform="translate(8, 170)"><rect width="288.9609375" height="146" stroke="black" fill="#e6e6e6" stroke-width="2" transform="translate(0, 0)" rx="2"/><g transform="translate(4, 4)"><rect width="54.6904296875" height="23.5" stroke="black" fill="none" stroke-width="0" transform="translate(0, 0)" rx="0"/><text fill="black" font-size="14" font-weight="normal" transform="translate(4, 4)" alignment-baseline="middle" font-family="Arial"><tspan x="0" dy="14" font-family="Arial" font-size="14" font-weight="normal">Players</tspan></text></g><g transform="translate(8, 39.5)"><rect width="88.921875" height="98.5" stroke="black" fill="#cccccc" stroke-width="2" transform="translate(0, 0)" rx="2"/><g transform="translate(4, 4)"><rect width="36.0078125" height="23.5" stroke="black" fill="none" stroke-width="0" transform="translate(0, 0)" rx="0"/><text fill="black" font-size="14" font-weight="normal" transform="translate(4, 4)" alignment-baseline="middle" font-family="Arial"><tspan x="0" dy="14" font-family="Arial" font-size="14" font-weight="normal">Amy</tspan></text></g><g transform="translate(8, 39.5)"><rect width="72.921875" height="51" stroke="black" fill="white" stroke-width="2" transform="translate(0, 0)" rx="3"/><text fill="black" font-size="16" font-weight="normal" transform="translate(8, 8)" alignment-baseline="middle" font-family="Arial"><tspan x="0" dy="16" font-family="Arial" font-size="16" font-weight="normal">Deck A</tspan><tspan x="0" dy="16" font-family="Arial" font-size="16" font-weight="normal">[Card 2]</tspan></text></g></g><g transform="translate(104.921875, 39.5)"><rect width="83.578125" height="98.5" stroke="black" fill="#cccccc" stroke-width="2" transform="translate(0, 0)" rx="2"/><g transform="translate(4, 4)"><rect width="36.8076171875" height="23.5" stroke="black" fill="none" stroke-width="0" transform="translate(0, 0)" rx="0"/><text fill="black" font-size="14" font-weight="normal" transform="translate(4, 4)" alignment-baseline="middle" font-family="Arial"><tspan x="0" dy="14" font-family="Arial" font-size="14" font-weight="normal">Beth</tspan></text></g><g transform="translate(8, 39.5)"><rect width="67.578125" height="51" stroke="black" fill="white" stroke-width="2" transform="translate(0, 0)" rx="3"/><text fill="black" font-size="16" font-weight="normal" transform="translate(8, 8)" alignment-baseline="middle" font-family="Arial"><tspan x="0" dy="16" font-family="Arial" font-size="16" font-weight="normal">Deck B</tspan><tspan x="0" dy="16" font-family="Arial" font-size="16" font-weight="normal">[nil]</tspan></text></g></g><g transform="translate(196.5, 39.5)"><rect width="84.4609375" height="98.5" stroke="black" fill="#cccccc" stroke-width="2" transform="translate(0, 0)" rx="2"/><g transform="translate(4, 4)"><rect width="52.359375" height="23.5" stroke="black" fill="none" stroke-width="0" transform="translate(0, 0)" rx="0"/><text fill="black" font-size="14" font-weight="normal" transform="translate(4, 4)" alignment-baseline="middle" font-family="Arial"><tspan x="0" dy="14" font-family="Arial" font-size="14" font-weight="normal">Charlie</tspan></text></g><g transform="translate(8, 39.5)"><rect width="68.4609375" height="51" stroke="black" fill="white" stroke-width="2" transform="translate(0, 0)" rx="3"/><text fill="black" font-size="16" font-weight="normal" transform="translate(8, 8)" alignment-baseline="middle" font-family="Arial"><tspan x="0" dy="16" font-family="Arial" font-size="16" font-weight="normal">Deck C</tspan><tspan x="0" dy="16" font-family="Arial" font-size="16" font-weight="normal">[nil]</tspan></text></g></g></g></g></svg>
